<svg width="20" height="20" viewBox="0 0 20 20" fill="none" xmlns="http://www.w3.org/2000/svg">
<path d="M7.33 0H1.94C0.86 0 0 0.86 0 1.94V7.33C0 8.4 0.86 9.26 1.94 9.26H7.33C8.4 9.26 9.26 8.4 9.26 7.33V1.94C9.26 0.86 8.4 0 7.33 0Z" fill="#446DD6"/>
<path d="M7.33 10.74H1.94C0.86 10.74 0 11.6 0 12.67V18.06C0 19.14 0.86 20 1.94 20H7.33C8.4 20 9.26 19.14 9.26 18.06V12.67C9.26 11.6 8.4 10.74 7.33 10.74Z" fill="#446DD6"/>
<path d="M18.06 10.74H12.67C11.6 10.74 10.74 11.6 10.74 12.67V18.06C10.74 19.14 11.6 20 12.67 20H18.06C19.14 20 20 19.14 20 18.06V12.67C20 11.6 19.14 10.74 18.06 10.74Z" fill="#446DD6"/>
<path d="M18.06 0H12.67C11.6 0 10.74 0.86 10.74 1.94V7.33C10.74 8.4 11.6 9.26 12.67 9.26H18.06C19.14 9.26 20 8.4 20 7.33V1.94C20 0.86 19.14 0 18.06 0Z" fill="#446DD6"/>
</svg>
